<?xml version="1.0" encoding="UTF-8"?>
<svg width="18px" height="21px" viewBox="0 0 18 21" version="1.1" xmlns="http://www.w3.org/2000/svg" xmlns:xlink="http://www.w3.org/1999/xlink">
    <!-- Generator: Sketch 55 (78076) - https://sketchapp.com -->
    <title>ic_folder</title>
    <desc>Created with Sketch.</desc>
    <defs>
        <path d="M15.3263158,1.93684211 L6.56842105,1.93684211 C5.36421053,1.93684211 4.38989474,2.80842105 4.38989474,3.87368421 L4.37894737,19.3684211 C4.37894737,20.4336842 5.35326316,21.3052632 6.55747368,21.3052632 L19.7052632,21.3052632 C20.9094737,21.3052632 21.8947368,20.4336842 21.8947368,19.3684211 L21.8947368,7.74736842 L15.3263158,1.93684211 L15.3263158,1.93684211 Z M17.5157895,17.4315789 L8.75789474,17.4315789 L8.75789474,15.4947368 L17.5157895,15.4947368 L17.5157895,17.4315789 L17.5157895,17.4315789 Z M17.5157895,13.5578947 L8.75789474,13.5578947 L8.75789474,11.6210526 L17.5157895,11.6210526 L17.5157895,13.5578947 L17.5157895,13.5578947 Z M14.2315789,8.71578947 L14.2315789,3.38947368 L20.2526316,8.71578947 L14.2315789,8.71578947 L14.2315789,8.71578947 Z" id="path-1"></path>
        <rect id="path-3" x="0" y="0" width="55" height="48"></rect>
    </defs>
    <g id="Symbols/Components" stroke="none" stroke-width="1" fill="none" fill-rule="evenodd">
        <g id="Component/explore/folder-Copy-11" transform="translate(-28.000000, -12.000000)">
            <g id="Group" transform="translate(24.000000, 11.000000)">
                <g id="ic_folder">
                    <g id="ic_description" transform="translate(-0.000000, -0.000000)">
                        <mask id="mask-2" fill="white">
                            <use xlink:href="#path-1"></use>
                        </mask>
                        <g id="Mask"></g>
                        <g id="Colors/Black" mask="url(#mask-2)">
                            <g transform="translate(-14.231579, -12.589474)">
                                <mask id="mask-4" fill="white">
                                    <use xlink:href="#path-3"></use>
                                </mask>
                                <use id="Black" stroke="none" fill="#000000" fill-rule="evenodd" xlink:href="#path-3"></use>
                            </g>
                        </g>
                    </g>
                </g>
            </g>
        </g>
    </g>
</svg>