<?xml version="1.0" encoding="UTF-8"?>
<svg width="20px" height="18px" viewBox="0 0 20 18" version="1.1" xmlns="http://www.w3.org/2000/svg" xmlns:xlink="http://www.w3.org/1999/xlink">
    <!-- Generator: Sketch 55 (78076) - https://sketchapp.com -->
    <title>Group</title>
    <desc>Created with Sketch.</desc>
    <defs>
        <polygon id="path-1" points="0.0173762972 1.50914943 4.45213315 9.37048276 6.12840282 9.37048276 7.34130457 4.98593103 5.86830137 0.155034483"></polygon>
        <linearGradient x1="0.00013543237%" y1="50.0001581%" x2="100.000535%" y2="50.0001581%" id="linearGradient-3">
            <stop stop-color="#FEFEFE" offset="0%"></stop>
            <stop stop-color="#EDEDED" offset="100%"></stop>
        </linearGradient>
        <polygon id="path-4" points="4.45213315 0.13462069 0.0173762972 7.94593103 5.86830137 6.59181609 9.24545714 4.50703448 10.4683141 0.13462069"></polygon>
        <linearGradient x1="9.4909853e-05%" y1="50.0018183%" x2="100.00037%" y2="50.0018183%" id="linearGradient-6">
            <stop stop-color="#FEFEFE" offset="0%"></stop>
            <stop stop-color="#EDEDED" offset="100%"></stop>
        </linearGradient>
        <polygon id="path-7" points="1.3620483 0.110528736 0.147879529 4.496 1.62377877 9.32487356 7.4718078 7.97333333 3.03650794 0.110528736"></polygon>
        <linearGradient x1="-0.00066604058%" y1="49.9991324%" x2="100.000949%" y2="49.9991324%" id="linearGradient-9">
            <stop stop-color="#FEFEFE" offset="0%"></stop>
            <stop stop-color="#EDEDED" offset="100%"></stop>
        </linearGradient>
        <polygon id="path-10" points="4.70083141 1.41682759 1.31317746 3.53250575 0.0990086935 7.8765977 6.11356057 7.8765977 10.5488604 0.0652873563"></polygon>
        <linearGradient x1="-9.75178841e-05%" y1="50.0004558%" x2="100.000665%" y2="50.0004558%" id="linearGradient-12">
            <stop stop-color="#FEFEFE" offset="0%"></stop>
            <stop stop-color="#EDEDED" offset="100%"></stop>
        </linearGradient>
    </defs>
    <g id="Ressources" stroke="none" stroke-width="1" fill="none" fill-rule="evenodd">
        <g id="Group" transform="translate(1.000000, 1.000000)">
            <g id="Group-38" transform="translate(0.000000, 6.436782)">
                <mask id="mask-2" fill="white">
                    <use xlink:href="#path-1"></use>
                </mask>
                <g id="Clip-37"></g>
                <polygon id="Fill-36" fill="url(#linearGradient-3)" mask="url(#mask-2)" points="0.0173762972 1.50914943 4.45213315 9.37048276 6.12840282 9.37048276 7.34130457 4.98593103 5.86830137 0.155034483"></polygon>
            </g>
            <polygon id="Stroke-39" stroke="#C5C3C4" stroke-width="0.5" points="0.0174124978 7.94596782 5.86833758 6.59185287 7.34134077 11.4227494 6.12843902 15.8073011 4.45216935 15.8073011"></polygon>
            <g id="Group-43" transform="translate(0.000000, 0.000000)">
                <mask id="mask-5" fill="white">
                    <use xlink:href="#path-4"></use>
                </mask>
                <g id="Clip-42"></g>
                <polygon id="Fill-41" fill="url(#linearGradient-6)" mask="url(#mask-5)" points="4.45213315 0.13462069 0.0173762972 7.94593103 5.86830137 6.59181609 9.24545714 4.50703448 10.4683141 0.13462069"></polygon>
            </g>
            <polygon id="Stroke-44" stroke="#C5C3C4" stroke-width="0.5" points="0.0174124978 7.94596782 5.86833758 6.59185287 9.24531234 4.50707126 10.4683503 0.134657471 4.45216935 0.134657471"></polygon>
            <g id="Group-48" transform="translate(10.317176, 0.000000)">
                <mask id="mask-8" fill="white">
                    <use xlink:href="#path-7"></use>
                </mask>
                <g id="Clip-47"></g>
                <polygon id="Fill-46" fill="url(#linearGradient-9)" mask="url(#mask-8)" points="1.3620483 0.110528736 0.147879529 4.496 1.62377877 9.32487356 7.4718078 7.97333333 3.03650794 0.110528736"></polygon>
            </g>
            <polygon id="Stroke-49" stroke="#C5C3C4" stroke-width="0.5" points="17.7890386 7.97344368 11.9408285 9.32498391 10.4651103 4.49611034 11.6790981 0.110455172 13.3537387 0.110455172"></polygon>
            <g id="Group-53" transform="translate(7.240124, 7.908046)">
                <mask id="mask-11" fill="white">
                    <use xlink:href="#path-10"></use>
                </mask>
                <g id="Clip-52"></g>
                <polygon id="Fill-51" fill="url(#linearGradient-12)" mask="url(#mask-11)" points="4.70083141 1.41682759 1.31317746 3.53250575 0.0990086935 7.8765977 6.11356057 7.8765977 10.5488604 0.0652873563"></polygon>
            </g>
            <polygon id="Stroke-54" stroke="#C5C3C4" stroke-width="0.5" points="17.7890386 7.97344368 11.9408285 9.32498391 8.5531746 11.4404782 7.33918683 15.784754 13.3537387 15.784754"></polygon>
        </g>
    </g>
</svg>