<?xml version="1.0" encoding="UTF-8"?>
<svg width="15px" height="15px" viewBox="0 0 15 15" version="1.1" xmlns="http://www.w3.org/2000/svg" xmlns:xlink="http://www.w3.org/1999/xlink">
    <!-- Generator: Sketch 55 (78076) - https://sketchapp.com -->
    <title>ic_folder</title>
    <desc>Created with Sketch.</desc>
    <defs>
        <path d="M11.6666667,3.5 L7,3.5 L5.83333333,2.33333333 L2.33333333,2.33333333 C1.69166667,2.33333333 1.1725,2.85833333 1.1725,3.5 L1.16666667,10.5 C1.16666667,11.1416667 1.69166667,11.6666667 2.33333333,11.6666667 L11.6666667,11.6666667 C12.3083333,11.6666667 12.8333333,11.1416667 12.8333333,10.5 L12.8333333,4.66666667 C12.8333333,4.025 12.3083333,3.5 11.6666667,3.5 L11.6666667,3.5 Z M11.6666667,10.5 L2.33333333,10.5 L2.33333333,4.66666667 L11.6666667,4.66666667 L11.6666667,10.5 L11.6666667,10.5 Z" id="path-1"></path>
        <rect id="path-3" x="0" y="0" width="29" height="29"></rect>
    </defs>
    <g id="ic_folder" stroke="none" stroke-width="1" fill="none" fill-rule="evenodd">
        <g id="ic_folder_open" transform="translate(-0.000000, -0.000000)">
            <mask id="mask-2" fill="white">
                <use xlink:href="#path-1"></use>
            </mask>
            <g id="Mask"></g>
            <g id="Colors/Black" mask="url(#mask-2)">
                <g transform="translate(-7.583333, -7.583333)">
                    <mask id="mask-4" fill="white">
                        <use xlink:href="#path-3"></use>
                    </mask>
                    <use id="Black" stroke="none" fill="#000000" fill-rule="evenodd" xlink:href="#path-3"></use>
                </g>
            </g>
        </g>
    </g>
</svg>