<?xml version="1.0" encoding="UTF-8"?>
<svg width="10px" height="12px" viewBox="0 0 10 12" version="1.1" xmlns="http://www.w3.org/2000/svg" xmlns:xlink="http://www.w3.org/1999/xlink">
    <!-- Generator: Sketch 55 (78076) - https://sketchapp.com -->
    <title>ic_folder copy</title>
    <desc>Created with Sketch.</desc>
    <defs>
        <path d="M8.16666667,1.16666667 L3.5,1.16666667 C2.85833333,1.16666667 2.33916667,1.69166667 2.33916667,2.33333333 L2.33333333,11.6666667 C2.33333333,12.3083333 2.8525,12.8333333 3.49416667,12.8333333 L10.5,12.8333333 C11.1416667,12.8333333 11.6666667,12.3083333 11.6666667,11.6666667 L11.6666667,4.66666667 L8.16666667,1.16666667 L8.16666667,1.16666667 Z M9.33333333,10.5 L4.66666667,10.5 L4.66666667,9.33333333 L9.33333333,9.33333333 L9.33333333,10.5 L9.33333333,10.5 Z M9.33333333,8.16666667 L4.66666667,8.16666667 L4.66666667,7 L9.33333333,7 L9.33333333,8.16666667 L9.33333333,8.16666667 Z M7.58333333,5.25 L7.58333333,2.04166667 L10.7916667,5.25 L7.58333333,5.25 L7.58333333,5.25 Z" id="path-1"></path>
        <rect id="path-3" x="0" y="0" width="29" height="29"></rect>
    </defs>
    <g id="Symbols/Components" stroke="none" stroke-width="1" fill="none" fill-rule="evenodd">
        <g id="ic_folder" transform="translate(-2.000000, -1.000000)">
            <g id="ic_description" transform="translate(-0.000000, -0.000000)">
                <mask id="mask-2" fill="white">
                    <use xlink:href="#path-1"></use>
                </mask>
                <g id="Mask"></g>
                <g id="Colors/Black" mask="url(#mask-2)">
                    <g transform="translate(-7.583333, -7.583333)">
                        <mask id="mask-4" fill="white">
                            <use xlink:href="#path-3"></use>
                        </mask>
                        <use id="Black" stroke="none" fill="#000000" fill-rule="evenodd" xlink:href="#path-3"></use>
                    </g>
                </g>
            </g>
        </g>
    </g>
</svg>