<?xml version="1.0" encoding="UTF-8"?>
<svg width="23px" height="17px" viewBox="0 0 23 17" version="1.1" xmlns="http://www.w3.org/2000/svg" xmlns:xlink="http://www.w3.org/1999/xlink">
    <!-- Generator: Sketch 55 (78076) - https://sketchapp.com -->
    <title>ic_folder</title>
    <desc>Created with Sketch.</desc>
    <defs>
        <path d="M21.8947368,5.81052632 L13.1368421,5.81052632 L10.9473684,3.87368421 L4.37894737,3.87368421 C3.17473684,3.87368421 2.20042105,4.74526316 2.20042105,5.81052632 L2.18947368,17.4315789 C2.18947368,18.4968421 3.17473684,19.3684211 4.37894737,19.3684211 L21.8947368,19.3684211 C23.0989474,19.3684211 24.0842105,18.4968421 24.0842105,17.4315789 L24.0842105,7.74736842 C24.0842105,6.68210526 23.0989474,5.81052632 21.8947368,5.81052632 L21.8947368,5.81052632 Z M21.8947368,17.4315789 L4.37894737,17.4315789 L4.37894737,7.74736842 L21.8947368,7.74736842 L21.8947368,17.4315789 L21.8947368,17.4315789 Z" id="path-1"></path>
        <rect id="path-3" x="0" y="0" width="55" height="48"></rect>
    </defs>
    <g id="Symbols/Components" stroke="none" stroke-width="1" fill="none" fill-rule="evenodd">
        <g id="Component/explore/folder-Copy-17" transform="translate(-26.000000, -14.000000)">
            <g id="Group" transform="translate(24.000000, 11.000000)">
                <g id="ic_folder">
                    <g id="ic_folder_open" transform="translate(-0.000000, -0.000000)">
                        <mask id="mask-2" fill="white">
                            <use xlink:href="#path-1"></use>
                        </mask>
                        <g id="Mask"></g>
                        <g id="Colors/Black" mask="url(#mask-2)">
                            <g transform="translate(-14.231579, -12.589474)">
                                <mask id="mask-4" fill="white">
                                    <use xlink:href="#path-3"></use>
                                </mask>
                                <use id="Black" stroke="none" fill="#000000" fill-rule="evenodd" xlink:href="#path-3"></use>
                            </g>
                        </g>
                    </g>
                </g>
            </g>
        </g>
    </g>
</svg>