<svg xmlns="http://www.w3.org/2000/svg" viewBox="0 0 1024 1024" xmlns:vectornator="http://vectornator.io" clip-rule="evenodd" stroke-linecap="round" stroke-linejoin="round"><g vectornator:layerName="Ebene 1"><path fill="#4cbdec" d="M392 411.469c-4.131-.111-8.277-.08-12.406.062-38.93 1.336-76.949 13.993-110.532 33.375-8.443 4.873-16.642 10.196-24.5 15.969-4.156 3.054-8.276 6.185-12.124 9.625-9.452 8.459-10.241 22.986-1.782 32.438 8.459 9.451 22.986 10.271 32.438 1.812-.004.003.329-.309.406-.375.256-.218.523-.441.781-.656.692-.577 1.389-1.159 2.094-1.719 2.316-1.841 4.688-3.592 7.094-5.312a214.584 214.584 0 0121.406-13.5c23.018-12.664 48.345-21.395 74.594-23.782 8.487-.771 17.031-.877 25.531-.25 7.926.585 15.825 1.834 23.656 3.156 13.632 2.303 27.201 5.254 40.406 9.376 9.255 2.888 18.441 6.355 26.938 11.062 3.104 1.72 6.154 3.593 8.906 5.844.551.45 1.084.942 1.594 1.437.115.112.483.344.469.469-.015.132-.169-.207-.25-.312-.189-.245-.386-.497-.563-.75 7.566 11.056 22.662 13.909 33.719 6.343 11.057-7.565 13.909-22.662 6.344-33.719-2.319-3.339-5.208-6.285-8.25-8.968-4.715-4.159-9.926-7.73-15.344-10.906-17.484-10.252-37.125-16.705-56.75-21.407-10.653-2.552-21.451-4.525-32.281-6.156-6.384-.961-12.788-1.863-19.219-2.437a199.006 199.006 0 00-12.375-.719zm-17.375 315.125c-6.023.166-12.016.591-18 1.281-30.741 3.544-60.528 13.888-87.625 28.687-9.544 5.213-18.789 10.973-27.625 17.313-4.895 3.512-9.753 7.169-14.25 11.187-9.452 8.459-10.271 22.986-1.813 32.438 8.459 9.452 22.986 10.271 32.438 1.812-.061.055.237-.238.25-.25.123-.106.283-.208.406-.312.297-.252.575-.502.875-.75a137.598 137.598 0 013.5-2.781 194.697 194.697 0 0110.25-7.375c10.824-7.29 22.285-13.656 34.219-18.938 22.936-10.15 47.809-16.23 72.969-16.125 14.125.059 28.304 2.131 42 5.531a154.972 154.972 0 0135.562 13.657c11.754 6.259 22.742 13.788 34.25 20.469 13.701 7.953 28.033 14.714 43.094 19.656 12.882 4.227 26.149 7.24 39.531 9.375 6.069.968 12.159 1.829 18.282 2.375 9.205.82 18.486.988 27.718.594 45.559-1.949 89.75-17.757 129.406-39.626a387.467 387.467 0 0030.407-18.624c5.646-3.831 11.254-7.768 16.562-12.063 10.407-8.437 12.032-23.718 3.594-34.125-8.437-10.407-23.718-12-34.125-3.562a9.902 9.902 0 00-.281.218c-.173.137-.291.235-.469.375-.372.292-.75.588-1.125.875a200.332 200.332 0 01-3.687 2.75 290.87 290.87 0 01-11.376 7.906 339.715 339.715 0 01-35.593 20.563c-37.408 18.674-80.153 31.389-122.281 26.437-22.386-2.63-44.471-7.911-64.75-17.937-12.928-6.391-24.901-14.46-37.376-21.656-11.25-6.491-22.916-12.212-35.156-16.594-12.562-4.497-25.588-7.638-38.75-9.781-7.61-1.239-15.271-2.202-22.968-2.688a199.318 199.318 0 00-18.063-.312z"/><path fill="none" stroke-linecap="square" d="M882.741 480.907l-4.953 417.989c.009 14.439-12.595 26.152-28.153 26.162l-700.461.466c-15.558.01-28.178-11.686-28.187-26.125l-.513-771.22c-.01-14.438 12.595-26.152 28.153-26.162l349.051-3.54" stroke="#4cbdec" stroke-width="75.761"/><path d="M371.875 564.562c-6.023.167-12.047.592-18.031 1.282-30.741 3.543-60.528 13.887-87.625 28.687a266.717 266.717 0 00-27.625 17.344c-4.896 3.512-9.753 7.169-14.25 11.187-9.452 8.459-10.24 22.955-1.782 32.407 8.459 9.452 22.986 10.271 32.438 1.812-.061.055.237-.207.25-.219.124-.106.252-.239.375-.343.297-.252.606-.503.906-.75a133.955 133.955 0 013.469-2.781 194.3 194.3 0 0110.25-7.376 222.956 222.956 0 0134.25-18.937c22.936-10.15 47.809-16.23 72.969-16.125 14.125.059 28.304 2.162 42 5.562 12.388 3.076 24.261 7.654 35.531 13.657 11.753 6.259 22.773 13.788 34.281 20.469 13.701 7.953 28.033 14.713 43.094 19.656 12.882 4.227 26.149 7.24 39.531 9.375 6.069.968 12.159 1.798 18.282 2.343 9.205.821 18.454 1.02 27.687.626 45.558-1.949 89.781-17.757 129.437-39.626a387.467 387.467 0 0030.407-18.624c5.646-3.831 11.254-7.769 16.562-12.063 10.407-8.437 12-23.718 3.563-34.125-8.438-10.407-23.719-12-34.125-3.562.089-.072-.16.147-.25.218-.172.136-.292.237-.469.375-.372.292-.75.557-1.125.844a206.686 206.686 0 01-3.687 2.781c-3.729 2.728-7.522 5.328-11.376 7.875a340.158 340.158 0 01-35.624 20.563c-37.408 18.674-80.153 31.388-122.282 26.437-22.385-2.631-44.439-7.88-64.718-17.906-12.928-6.391-24.901-14.46-37.376-21.656-11.25-6.491-22.947-12.212-35.187-16.594-12.562-4.497-25.557-7.669-38.719-9.813-7.61-1.239-15.271-2.201-22.968-2.687a199.683 199.683 0 00-18.063-.313zM830.62 134.727L634.776 317.102l71.531 77.531 197.219-181.219-72.906-78.687zm-8.503 19.326l.086 10.964-169.448 152.1 4.625-8.897 164.737-154.167zM610.054 413.585l20.123-89.761 70.543 73.482-90.666 16.279z" fill="#4cbdec"/></g></svg>