<?xml version="1.0" encoding="UTF-8"?>
<svg width="409px" height="76px" viewBox="0 0 409 76" version="1.1" xmlns="http://www.w3.org/2000/svg" xmlns:xlink="http://www.w3.org/1999/xlink">
    <!-- Generator: Sketch 55 (78076) - https://sketchapp.com -->
    <title>Group 9</title>
    <desc>Created with Sketch.</desc>
    <defs>
        <path d="M25.2215747,0.595689655 L25.2215747,15.6862069 C22.9855832,15.2784483 20.8299368,15.0672414 18.7529263,15.0672414 L18.7529263,15.0672414 C12.9407158,15.0672414 8.48069895,16.7698276 5.38655158,20.1706897 L5.38655158,20.1706897 C2.29411368,23.5672414 0.741911579,28.4586207 0.741911579,34.85 L0.741911579,34.85 C0.741911579,38.362069 1.18381053,41.4594828 2.07273684,44.1413793 L2.07273684,44.1413793 C2.96166316,46.8232759 4.03863158,48.8577586 5.30962526,50.2396552 L5.30962526,50.2396552 C6.5772,51.625 8.07213474,52.7517241 9.78502737,53.6275862 L9.78502737,53.6275862 C11.4996295,54.4939655 12.9911453,55.0362069 14.2741053,55.2405172 L14.2741053,55.2405172 C15.5545011,55.4448276 16.8494274,55.5465517 18.1409347,55.5465517 L18.1409347,55.5465517 C23.7009979,55.5465517 27.8327958,54.25 30.5354737,51.6474138 L30.5354737,51.6474138 C33.2338779,49.0431034 34.5886358,45.9336207 34.5886358,42.3181034 L34.5886358,42.3181034 L34.5886358,0.595689655 L25.2215747,0.595689655 Z M11.8970821,44.3594828 C10.7055789,42.3068966 10.1089726,38.9681034 10.1089726,34.3508621 L10.1089726,34.3508621 C10.1089726,29.9293103 10.8713979,26.8448276 12.3919747,25.0862069 L12.3919747,25.0862069 C13.9134063,23.3258621 16.1357221,22.4456897 19.0555032,22.4456897 L19.0555032,22.4456897 C21.3385053,22.4715517 23.3975663,22.687069 25.2215747,23.0991379 L25.2215747,23.0991379 L25.2215747,43.2077586 C25.2215747,46.0336207 22.8642105,47.4465517 18.1409347,47.4465517 L18.1409347,47.4465517 C15.1724337,47.4465517 13.0911495,46.4146552 11.8970821,44.3594828 L11.8970821,44.3594828 Z" id="path-1"></path>
        <linearGradient x1="-0.000105810753%" y1="49.9997187%" x2="100.00125%" y2="49.9997187%" id="linearGradient-3">
            <stop stop-color="#FEFEFE" offset="0%"></stop>
            <stop stop-color="#EDEDED" offset="100%"></stop>
        </linearGradient>
        <path d="M4.18735579,5.98189655 C1.41202526,9.74741379 0.0230778947,14.7801724 0.0230778947,21.0775862 L0.0230778947,21.0775862 C0.0230778947,24.2758621 0.407709474,27.0991379 1.15645895,29.5448276 L1.15645895,29.5448276 C1.91290105,31.9905172 2.87960842,33.8991379 4.05572632,35.2853448 L4.05572632,35.2853448 C5.23184421,36.6689655 6.63617684,37.8077586 8.26786947,38.7025862 L8.26786947,38.7025862 C9.90810947,39.5991379 11.4808253,40.1896552 13.0073853,40.4732759 L13.0073853,40.4732759 C14.5279621,40.75 16.1485432,40.8913793 17.8810947,40.8913793 L17.8810947,40.8913793 C23.3343158,40.8913793 28.2217011,39.7163793 32.5398316,37.3612069 L32.5398316,37.3612069 L32.5398316,29.7551724 C28.27384,31.775 23.8591242,32.7913793 19.2914105,32.7913793 L19.2914105,32.7913793 C16.4707789,32.7913793 14.17752,32.2163793 12.4176168,31.062931 L12.4176168,31.062931 C10.6508758,29.9094828 9.64057684,27.6284483 9.39099368,24.2284483 L9.39099368,24.2284483 L34.6296632,24.2284483 C34.73736,23.1784483 34.7852253,21.5508621 34.7852253,19.3474138 L34.7852253,19.3474138 C34.7852253,13.9974138 33.3219158,9.49224138 30.3858947,5.83103448 L30.3858947,5.83103448 C27.4550021,2.16810345 23.1368716,0.338793103 17.4272295,0.338793103 L17.4272295,0.338793103 C11.3782568,0.338793103 6.97123368,2.22068966 4.18735579,5.98189655 M11.7312632,10.3663793 C13.0390105,8.85086207 14.8604547,8.09655172 17.19816,8.09655172 L17.19816,8.09655172 C19.5290274,8.09655172 21.3641474,9.02327586 22.6941179,10.8793103 L22.6941179,10.8793103 C24.0300716,12.7301724 24.8207032,15.0051724 25.0771242,17.6982759 L25.0771242,17.6982759 L9.39099368,17.6982759 C9.64057684,14.3206897 10.4243705,11.8732759 11.7312632,10.3663793" id="path-4"></path>
        <linearGradient x1="-0.00133095648%" y1="49.999436%" x2="99.9991898%" y2="49.999436%" id="linearGradient-6">
            <stop stop-color="#FEFEFE" offset="0%"></stop>
            <stop stop-color="#EDEDED" offset="100%"></stop>
        </linearGradient>
        <polygon id="path-7" points="29.8687789 0.168965517 20.1179411 29.9698276 10.3765053 0.168965517 0.396597895 0.168965517 15.2844042 39.4189655 25.0343874 39.4189655 39.9170653 0.168965517"></polygon>
        <linearGradient x1="0.000603845405%" y1="49.9981199%" x2="99.9996211%" y2="49.9981199%" id="linearGradient-9">
            <stop stop-color="#FEFEFE" offset="0%"></stop>
            <stop stop-color="#EDEDED" offset="100%"></stop>
        </linearGradient>
        <path d="M5.03098105,5.71465517 C1.85990737,9.19741379 0.27608,14.1887931 0.27608,20.6922414 L0.27608,20.6922414 C0.27608,27.1948276 1.85990737,32.1905172 5.03098105,35.6706897 L5.03098105,35.6706897 C8.20718316,39.1525862 12.7535284,40.8913793 18.6845474,40.8913793 L18.6845474,40.8913793 C24.6155663,40.8913793 29.1576379,39.1525862 32.3329853,35.6706897 L32.3329853,35.6706897 C35.5100421,32.1905172 37.0989979,27.1948276 37.0989979,20.6922414 L37.0989979,20.6922414 C37.0989979,14.1887931 35.5100421,9.19741379 32.3329853,5.71465517 L32.3329853,5.71465517 C29.1576379,2.23189655 24.6155663,0.492241379 18.6845474,0.492241379 L18.6845474,0.492241379 C12.7535284,0.492241379 8.20718316,2.23189655 5.03098105,5.71465517 M11.8654568,30.5793103 C10.3816337,28.8801724 9.64143158,25.5913793 9.64143158,20.7137931 L9.64143158,20.7137931 C9.64143158,15.837069 10.3816337,12.5387931 11.8654568,10.8206897 L11.8654568,10.8206897 C13.3501347,9.10862069 15.6322821,8.25 18.7007874,8.25 L18.7007874,8.25 C21.7795495,8.25 24.0463116,9.10862069 25.5250063,10.8206897 L25.5250063,10.8206897 C26.9883158,12.5387931 27.7310821,15.837069 27.7310821,20.7137931 L27.7310821,20.7137931 C27.7310821,25.5913793 26.9883158,28.8801724 25.5250063,30.5793103 L25.5250063,30.5793103 C24.0463116,32.2853448 21.7795495,33.1336207 18.7007874,33.1336207 L18.7007874,33.1336207 C15.6322821,33.1336207 13.3501347,32.2853448 11.8654568,30.5793103" id="path-10"></path>
        <linearGradient x1="-0.000925465983%" y1="50.0005586%" x2="100.000114%" y2="50.0005586%" id="linearGradient-12">
            <stop stop-color="#FEFEFE" offset="0%"></stop>
            <stop stop-color="#EDEDED" offset="100%"></stop>
        </linearGradient>
        <path d="M0.659856842,4.71724138 L0.659856842,40.2810345 L10.0277726,40.2810345 L10.0277726,9.44224138 C12.5663411,8.98189655 14.9775537,8.75086207 17.2605558,8.75086207 L17.2605558,8.75086207 C19.29312,8.75086207 20.9564379,8.94396552 22.2505095,9.325 L22.2505095,9.325 C23.5445811,9.71034483 24.4805179,10.2844828 25.0497726,11.0517241 L25.0497726,11.0517241 C25.6241558,11.8181034 26.0010947,12.5603448 26.1942653,13.2612069 L26.1942653,13.2612069 C26.3831621,13.9663793 26.4814568,14.8465517 26.4814568,15.8896552 L26.4814568,15.8896552 L26.4814568,40.2810345 L35.8459537,40.2810345 L35.8459537,16.7017241 C35.8459537,11.5525862 34.3142653,7.55431034 31.2577263,4.70172414 L31.2577263,4.70172414 C28.1977684,1.84655172 23.9531453,0.412068966 18.5230021,0.412068966 L18.5230021,0.412068966 C12.3270147,0.412068966 6.37462737,1.85172414 0.659856842,4.71724138" id="path-13"></path>
        <linearGradient x1="0.00030413448%" y1="49.9999944%" x2="100.000731%" y2="49.9999944%" id="linearGradient-15">
            <stop stop-color="#FEFEFE" offset="0%"></stop>
            <stop stop-color="#EDEDED" offset="100%"></stop>
        </linearGradient>
        <path d="M17.2545726,0.109482759 C16.5297558,0.162931034 15.4775747,0.452586207 14.0937558,0.974137931 L14.0937558,0.974137931 C12.7107916,1.5 11.5722821,2.22241379 10.6833558,3.14568966 L10.6833558,3.14568966 C9.79528421,4.06810345 9.00465263,5.50172414 8.30547789,7.44482759 L8.30547789,7.44482759 C7.60972211,9.38965517 7.25928,11.7241379 7.25928,14.4336207 L7.25928,14.4336207 L7.25928,16.5482759 L0.558997895,16.5482759 L0.558997895,21.7310345 L7.25928,21.7310345 L7.25928,55.7982759 L12.8979789,55.7982759 L12.8979789,21.7310345 L23.5574021,21.7310345 L23.5574021,16.5482759 L12.8979789,16.5482759 L12.8979789,14.3594828 C12.8979789,12.2086207 13.1116632,10.4586207 13.5381768,9.11724138 L13.5381768,9.11724138 C13.9732379,7.77155172 14.64848,6.8387931 15.5621937,6.3112069 L15.5621937,6.3112069 C16.4716337,5.79051724 17.2545726,5.475 17.9033179,5.37241379 L17.9033179,5.37241379 C18.5520632,5.26896552 19.4922737,5.21637931 20.7367705,5.21637931 L20.7367705,5.21637931 C21.5778316,5.21637931 22.5137684,5.31982759 23.5574021,5.52758621 L23.5574021,5.52758621 L23.5574021,0.495689655 C22.4659032,0.188793103 21.2188421,0.0353448276 19.8222021,0.0353448276 L19.8222021,0.0353448276 C18.8341263,0.0353448276 17.9768253,0.0620689655 17.2545726,0.109482759" id="path-16"></path>
        <linearGradient x1="0.000422938269%" y1="49.9995563%" x2="99.9983161%" y2="49.9995563%" id="linearGradient-18">
            <stop stop-color="#FEFEFE" offset="0%"></stop>
            <stop stop-color="#EDEDED" offset="100%"></stop>
        </linearGradient>
        <polygon id="path-19" points="49.4354147 0.168965517 39.5409811 30.5698276 30.4611116 0.168965517 25.1096042 0.168965517 16.1605095 30.5439655 6.22590316 0.168965517 0.321381053 0.168965517 13.2663705 39.4189655 18.6725811 39.4189655 27.7011663 9.58362069 36.7203495 39.4189655 42.1248505 39.4189655 55.0818063 0.168965517"></polygon>
        <linearGradient x1="0.000153901384%" y1="49.9981199%" x2="100.000525%" y2="49.9981199%" id="linearGradient-21">
            <stop stop-color="#FEFEFE" offset="0%"></stop>
            <stop stop-color="#EDEDED" offset="100%"></stop>
        </linearGradient>
        <polygon id="path-22" points="0.0820547368 7.07413793 21.0239621 43.9241379 28.93968 43.9241379 34.6672716 23.3715517 27.7114232 0.726724138"></polygon>
        <linearGradient x1="0.00013543237%" y1="50.0001581%" x2="100.000535%" y2="50.0001581%" id="linearGradient-24">
            <stop stop-color="#FEFEFE" offset="0%"></stop>
            <stop stop-color="#EDEDED" offset="100%"></stop>
        </linearGradient>
        <polygon id="path-25" points="21.0239621 0.631034483 0.0820547368 37.2465517 27.7114232 30.8991379 43.6591032 21.1267241 49.4337053 0.631034483"></polygon>
        <linearGradient x1="9.4909853e-05%" y1="50.0018183%" x2="100.00037%" y2="50.0018183%" id="linearGradient-27">
            <stop stop-color="#FEFEFE" offset="0%"></stop>
            <stop stop-color="#EDEDED" offset="100%"></stop>
        </linearGradient>
        <polygon id="path-28" points="6.43189474 0.518103448 0.69832 21.075 7.66784421 43.7103448 35.2835368 37.375 14.3390653 0.518103448"></polygon>
        <linearGradient x1="-0.00066604058%" y1="49.9991324%" x2="100.000949%" y2="49.9991324%" id="linearGradient-30">
            <stop stop-color="#FEFEFE" offset="0%"></stop>
            <stop stop-color="#EDEDED" offset="100%"></stop>
        </linearGradient>
        <polygon id="path-31" points="22.1983705 6.64137931 6.20111579 16.5586207 0.467541053 36.9215517 28.8695916 36.9215517 49.8140632 0.306034483"></polygon>
        <linearGradient x1="-9.75178841e-05%" y1="50.0004558%" x2="100.000665%" y2="50.0004558%" id="linearGradient-33">
            <stop stop-color="#FEFEFE" offset="0%"></stop>
            <stop stop-color="#EDEDED" offset="100%"></stop>
        </linearGradient>
    </defs>
    <g id="Ressources" stroke="none" stroke-width="1" fill="none" fill-rule="evenodd">
        <g id="Group-9" transform="translate(2.000000, 1.000000)">
            <g id="Group-2-Copy" transform="translate(104.277895, 7.758621)">
                <g id="Group-3" transform="translate(0.000000, 0.862069)">
                    <mask id="mask-2" fill="white">
                        <use xlink:href="#path-1"></use>
                    </mask>
                    <g id="Clip-2"></g>
                    <path d="M25.2215747,0.595689655 L25.2215747,15.6862069 C22.9855832,15.2784483 20.8299368,15.0672414 18.7529263,15.0672414 L18.7529263,15.0672414 C12.9407158,15.0672414 8.48069895,16.7698276 5.38655158,20.1706897 L5.38655158,20.1706897 C2.29411368,23.5672414 0.741911579,28.4586207 0.741911579,34.85 L0.741911579,34.85 C0.741911579,38.362069 1.18381053,41.4594828 2.07273684,44.1413793 L2.07273684,44.1413793 C2.96166316,46.8232759 4.03863158,48.8577586 5.30962526,50.2396552 L5.30962526,50.2396552 C6.5772,51.625 8.07213474,52.7517241 9.78502737,53.6275862 L9.78502737,53.6275862 C11.4996295,54.4939655 12.9911453,55.0362069 14.2741053,55.2405172 L14.2741053,55.2405172 C15.5545011,55.4448276 16.8494274,55.5465517 18.1409347,55.5465517 L18.1409347,55.5465517 C23.7009979,55.5465517 27.8327958,54.25 30.5354737,51.6474138 L30.5354737,51.6474138 C33.2338779,49.0431034 34.5886358,45.9336207 34.5886358,42.3181034 L34.5886358,42.3181034 L34.5886358,0.595689655 L25.2215747,0.595689655 Z M11.8970821,44.3594828 C10.7055789,42.3068966 10.1089726,38.9681034 10.1089726,34.3508621 L10.1089726,34.3508621 C10.1089726,29.9293103 10.8713979,26.8448276 12.3919747,25.0862069 L12.3919747,25.0862069 C13.9134063,23.3258621 16.1357221,22.4456897 19.0555032,22.4456897 L19.0555032,22.4456897 C21.3385053,22.4715517 23.3975663,22.687069 25.2215747,23.0991379 L25.2215747,23.0991379 L25.2215747,43.2077586 C25.2215747,46.0336207 22.8642105,47.4465517 18.1409347,47.4465517 L18.1409347,47.4465517 C15.1724337,47.4465517 13.0911495,46.4146552 11.8970821,44.3594828 L11.8970821,44.3594828 Z" id="Fill-1" fill="url(#linearGradient-3)" mask="url(#mask-2)"></path>
                </g>
                <path d="M10.1095709,35.2127586 C10.1095709,39.83 10.7053225,43.1687931 11.8968257,45.2213793 C13.0908931,47.2765517 15.173032,48.3084483 18.1406783,48.3084483 C22.8648088,48.3084483 25.2213183,46.8963793 25.2213183,44.0696552 L25.2213183,23.9610345 C23.3973099,23.5498276 21.3391036,23.3343103 19.0561015,23.3075862 C16.1354657,23.3075862 13.9131499,24.1877586 12.3925731,25.9481034 C10.8711415,27.7075862 10.1095709,30.7912069 10.1095709,35.2127586 Z M0.741655158,35.7118966 C0.741655158,29.3213793 2.29385726,24.4291379 5.38629516,21.0325862 C8.48044253,17.6317241 12.9413141,15.93 18.7526699,15.93 C20.8296804,15.93 22.9853267,16.1403448 25.2213183,16.5481034 L25.2213183,1.45758621 L34.5892341,1.45758621 L34.5892341,43.18 C34.5892341,46.7963793 33.2344762,49.9058621 30.5352173,52.5084483 C27.8333941,55.1118966 23.7007415,56.4084483 18.1406783,56.4084483 C16.8500257,56.4084483 15.5550994,56.3075862 14.2747036,56.1024138 C12.9908888,55.8981034 11.4985183,55.3558621 9.78562568,54.4886207 C8.07187832,53.6144828 6.57779832,52.4868966 5.30936884,51.1024138 C4.03922989,49.7196552 2.96140674,47.6860345 2.07248042,45.0032759 C1.18440884,42.3213793 0.741655158,39.2239655 0.741655158,35.7118966 Z" id="Stroke-4" stroke="#C5C3C4" stroke-width="1.5"></path>
                <g id="Group-8" transform="translate(43.591579, 15.517241)">
                    <mask id="mask-5" fill="white">
                        <use xlink:href="#path-4"></use>
                    </mask>
                    <g id="Clip-7"></g>
                    <path d="M4.18735579,5.98189655 C1.41202526,9.74741379 0.0230778947,14.7801724 0.0230778947,21.0775862 L0.0230778947,21.0775862 C0.0230778947,24.2758621 0.407709474,27.0991379 1.15645895,29.5448276 L1.15645895,29.5448276 C1.91290105,31.9905172 2.87960842,33.8991379 4.05572632,35.2853448 L4.05572632,35.2853448 C5.23184421,36.6689655 6.63617684,37.8077586 8.26786947,38.7025862 L8.26786947,38.7025862 C9.90810947,39.5991379 11.4808253,40.1896552 13.0073853,40.4732759 L13.0073853,40.4732759 C14.5279621,40.75 16.1485432,40.8913793 17.8810947,40.8913793 L17.8810947,40.8913793 C23.3343158,40.8913793 28.2217011,39.7163793 32.5398316,37.3612069 L32.5398316,37.3612069 L32.5398316,29.7551724 C28.27384,31.775 23.8591242,32.7913793 19.2914105,32.7913793 L19.2914105,32.7913793 C16.4707789,32.7913793 14.17752,32.2163793 12.4176168,31.062931 L12.4176168,31.062931 C10.6508758,29.9094828 9.64057684,27.6284483 9.39099368,24.2284483 L9.39099368,24.2284483 L34.6296632,24.2284483 C34.73736,23.1784483 34.7852253,21.5508621 34.7852253,19.3474138 L34.7852253,19.3474138 C34.7852253,13.9974138 33.3219158,9.49224138 30.3858947,5.83103448 L30.3858947,5.83103448 C27.4550021,2.16810345 23.1368716,0.338793103 17.4272295,0.338793103 L17.4272295,0.338793103 C11.3782568,0.338793103 6.97123368,2.22068966 4.18735579,5.98189655 M11.7312632,10.3663793 C13.0390105,8.85086207 14.8604547,8.09655172 17.19816,8.09655172 L17.19816,8.09655172 C19.5290274,8.09655172 21.3641474,9.02327586 22.6941179,10.8793103 L22.6941179,10.8793103 C24.0300716,12.7301724 24.8207032,15.0051724 25.0771242,17.6982759 L25.0771242,17.6982759 L9.39099368,17.6982759 C9.64057684,14.3206897 10.4243705,11.8732759 11.7312632,10.3663793" id="Fill-6" fill="url(#linearGradient-6)" mask="url(#mask-5)"></path>
                </g>
                <path d="M52.9824872,33.2158621 L68.6686177,33.2158621 C68.4130514,30.5227586 67.6215651,28.2468966 66.2856114,26.3968966 C64.9547861,24.5408621 63.1205208,23.6132759 60.7896535,23.6132759 C58.4519482,23.6132759 56.630504,24.3675862 55.3227566,25.8839655 C54.015864,27.3908621 53.2329251,29.8374138 52.9824872,33.2158621 Z M43.6145714,36.5951724 C43.6145714,30.2968966 45.0035187,25.2641379 47.779704,21.4994828 C50.5627272,17.7382759 54.9697503,15.8555172 61.0187229,15.8555172 C66.7283651,15.8555172 71.0464956,17.6848276 73.9765335,21.3477586 C76.9134093,25.0089655 78.3767187,29.515 78.3767187,34.8641379 C78.3767187,37.0684483 78.3288535,38.6951724 78.2211566,39.7451724 L52.9824872,39.7451724 C53.2329251,43.1460345 54.2423693,45.4262069 56.0091103,46.5805172 C57.7690135,47.7339655 60.0622724,48.3089655 62.882904,48.3089655 C67.4506177,48.3089655 71.8661882,47.2925862 76.1313251,45.2718966 L76.1313251,52.8787931 C71.8131945,55.2331034 66.9258093,56.4081034 61.4725882,56.4081034 C59.7408914,56.4081034 58.1203103,56.2675862 56.5988787,55.9908621 C55.0723187,55.7072414 53.4987482,55.1158621 51.8593629,54.2201724 C50.2276703,53.3244828 48.8233377,52.1865517 47.6472198,50.802069 C46.4719566,49.4167241 45.5043945,47.5081034 44.7479524,45.0615517 C43.9992029,42.6158621 43.6145714,39.7925862 43.6145714,36.5951724 Z" id="Stroke-9" stroke="#C5C3C4" stroke-width="1.5"></path>
                <g id="Group-13" transform="translate(82.054737, 16.379310)">
                    <mask id="mask-8" fill="white">
                        <use xlink:href="#path-7"></use>
                    </mask>
                    <g id="Clip-12"></g>
                    <polygon id="Fill-11" fill="url(#linearGradient-9)" mask="url(#mask-8)" points="29.8687789 0.168965517 20.1179411 29.9698276 10.3765053 0.168965517 0.396597895 0.168965517 15.2844042 39.4189655 25.0343874 39.4189655 39.9170653 0.168965517"></polygon>
                </g>
                <polygon id="Stroke-14" stroke="#C5C3C4" stroke-width="1.5" points="82.4516766 16.5477586 92.4307293 16.5477586 102.17302 46.3486207 111.923003 16.5477586 121.971289 16.5477586 107.089466 55.7977586 97.3386282 55.7977586"></polygon>
                <g id="Group-18" transform="translate(126.501053, 15.517241)">
                    <mask id="mask-11" fill="white">
                        <use xlink:href="#path-10"></use>
                    </mask>
                    <g id="Clip-17"></g>
                    <path d="M5.03098105,5.71465517 C1.85990737,9.19741379 0.27608,14.1887931 0.27608,20.6922414 L0.27608,20.6922414 C0.27608,27.1948276 1.85990737,32.1905172 5.03098105,35.6706897 L5.03098105,35.6706897 C8.20718316,39.1525862 12.7535284,40.8913793 18.6845474,40.8913793 L18.6845474,40.8913793 C24.6155663,40.8913793 29.1576379,39.1525862 32.3329853,35.6706897 L32.3329853,35.6706897 C35.5100421,32.1905172 37.0989979,27.1948276 37.0989979,20.6922414 L37.0989979,20.6922414 C37.0989979,14.1887931 35.5100421,9.19741379 32.3329853,5.71465517 L32.3329853,5.71465517 C29.1576379,2.23189655 24.6155663,0.492241379 18.6845474,0.492241379 L18.6845474,0.492241379 C12.7535284,0.492241379 8.20718316,2.23189655 5.03098105,5.71465517 M11.8654568,30.5793103 C10.3816337,28.8801724 9.64143158,25.5913793 9.64143158,20.7137931 L9.64143158,20.7137931 C9.64143158,15.837069 10.3816337,12.5387931 11.8654568,10.8206897 L11.8654568,10.8206897 C13.3501347,9.10862069 15.6322821,8.25 18.7007874,8.25 L18.7007874,8.25 C21.7795495,8.25 24.0463116,9.10862069 25.5250063,10.8206897 L25.5250063,10.8206897 C26.9883158,12.5387931 27.7310821,15.837069 27.7310821,20.7137931 L27.7310821,20.7137931 C27.7310821,25.5913793 26.9883158,28.8801724 25.5250063,30.5793103 L25.5250063,30.5793103 C24.0463116,32.2853448 21.7795495,33.1336207 18.7007874,33.1336207 L18.7007874,33.1336207 C15.6322821,33.1336207 13.3501347,32.2853448 11.8654568,30.5793103" id="Fill-16" fill="url(#linearGradient-12)" mask="url(#mask-11)"></path>
                </g>
                <path d="M138.366851,26.3378448 C136.883028,28.0559483 136.141971,31.3542241 136.141971,36.2309483 C136.141971,41.1085345 136.883028,44.3973276 138.366851,46.0964655 C139.850675,47.8025 142.133677,48.6507759 145.202182,48.6507759 C148.280944,48.6507759 150.546851,47.8025 152.025546,46.0964655 C153.488856,44.3973276 154.232477,41.1085345 154.232477,36.2309483 C154.232477,31.3542241 153.488856,28.0559483 152.025546,26.3378448 C150.546851,24.6266379 148.280944,23.7680172 145.202182,23.7680172 C142.133677,23.7680172 139.850675,24.6266379 138.366851,26.3378448 Z M131.531521,51.1878448 C128.360447,47.7076724 126.77662,42.7119828 126.77662,36.2093966 C126.77662,29.7059483 128.360447,24.714569 131.531521,21.2318103 C134.708578,17.7490517 139.254923,16.0102586 145.185942,16.0102586 C151.116961,16.0102586 155.658178,17.7490517 158.83438,21.2318103 C162.010582,24.714569 163.599538,29.7059483 163.599538,36.2093966 C163.599538,42.7119828 162.010582,47.7076724 158.83438,51.1878448 C155.658178,54.6697414 151.116961,56.4085345 145.185942,56.4085345 C139.254923,56.4085345 134.708578,54.6697414 131.531521,51.1878448 Z" id="Stroke-19" stroke="#C5C3C4" stroke-width="1.5"></path>
                <g id="Group-23" transform="translate(171.802105, 15.517241)">
                    <mask id="mask-14" fill="white">
                        <use xlink:href="#path-13"></use>
                    </mask>
                    <g id="Clip-22"></g>
                    <path d="M0.659856842,4.71724138 L0.659856842,40.2810345 L10.0277726,40.2810345 L10.0277726,9.44224138 C12.5663411,8.98189655 14.9775537,8.75086207 17.2605558,8.75086207 L17.2605558,8.75086207 C19.29312,8.75086207 20.9564379,8.94396552 22.2505095,9.325 L22.2505095,9.325 C23.5445811,9.71034483 24.4805179,10.2844828 25.0497726,11.0517241 L25.0497726,11.0517241 C25.6241558,11.8181034 26.0010947,12.5603448 26.1942653,13.2612069 L26.1942653,13.2612069 C26.3831621,13.9663793 26.4814568,14.8465517 26.4814568,15.8896552 L26.4814568,15.8896552 L26.4814568,40.2810345 L35.8459537,40.2810345 L35.8459537,16.7017241 C35.8459537,11.5525862 34.3142653,7.55431034 31.2577263,4.70172414 L31.2577263,4.70172414 C28.1977684,1.84655172 23.9531453,0.412068966 18.5230021,0.412068966 L18.5230021,0.412068966 C12.3270147,0.412068966 6.37462737,1.85172414 0.659856842,4.71724138" id="Fill-21" fill="url(#linearGradient-15)" mask="url(#mask-14)"></path>
                </g>
                <path d="M172.461962,55.7980172 L172.461962,20.2342241 C178.176733,17.3687069 184.128265,15.9299138 190.325107,15.9299138 C195.755251,15.9299138 199.999019,17.3635345 203.058977,20.219569 C206.117225,23.0712931 207.648914,27.069569 207.648914,32.2187069 L207.648914,55.7980172 L198.282707,55.7980172 L198.282707,31.4075 C198.282707,30.3635345 198.185267,29.4842241 197.996371,28.7781897 C197.8032,28.0773276 197.427116,27.3350862 196.851878,26.569569 C196.282623,25.8014655 195.346686,25.2273276 194.052615,24.8419828 C192.758543,24.4609483 191.095225,24.2678448 189.062661,24.2678448 C186.779659,24.2678448 184.368446,24.4988793 181.829878,24.9592241 L181.829878,55.7980172 L172.461962,55.7980172 Z" id="Stroke-24" stroke="#C5C3C4" stroke-width="1.5"></path>
                <g id="Group-28" transform="translate(217.103158, 0.000000)">
                    <mask id="mask-17" fill="white">
                        <use xlink:href="#path-16"></use>
                    </mask>
                    <g id="Clip-27"></g>
                    <path d="M17.2545726,0.109482759 C16.5297558,0.162931034 15.4775747,0.452586207 14.0937558,0.974137931 L14.0937558,0.974137931 C12.7107916,1.5 11.5722821,2.22241379 10.6833558,3.14568966 L10.6833558,3.14568966 C9.79528421,4.06810345 9.00465263,5.50172414 8.30547789,7.44482759 L8.30547789,7.44482759 C7.60972211,9.38965517 7.25928,11.7241379 7.25928,14.4336207 L7.25928,14.4336207 L7.25928,16.5482759 L0.558997895,16.5482759 L0.558997895,21.7310345 L7.25928,21.7310345 L7.25928,55.7982759 L12.8979789,55.7982759 L12.8979789,21.7310345 L23.5574021,21.7310345 L23.5574021,16.5482759 L12.8979789,16.5482759 L12.8979789,14.3594828 C12.8979789,12.2086207 13.1116632,10.4586207 13.5381768,9.11724138 L13.5381768,9.11724138 C13.9732379,7.77155172 14.64848,6.8387931 15.5621937,6.3112069 L15.5621937,6.3112069 C16.4716337,5.79051724 17.2545726,5.475 17.9033179,5.37241379 L17.9033179,5.37241379 C18.5520632,5.26896552 19.4922737,5.21637931 20.7367705,5.21637931 L20.7367705,5.21637931 C21.5778316,5.21637931 22.5137684,5.31982759 23.5574021,5.52758621 L23.5574021,5.52758621 L23.5574021,0.495689655 C22.4659032,0.188793103 21.2188421,0.0353448276 19.8222021,0.0353448276 L19.8222021,0.0353448276 C18.8341263,0.0353448276 17.9768253,0.0620689655 17.2545726,0.109482759" id="Fill-26" fill="url(#linearGradient-18)" mask="url(#mask-17)"></path>
                </g>
                <path d="M217.662498,21.7311207 L217.662498,16.5475 L224.36278,16.5475 L224.36278,14.4337069 C224.36278,11.7250862 224.713222,9.39060345 225.408978,7.44491379 C226.107298,5.50181034 226.898784,4.06818966 227.786856,3.14577586 C228.674927,2.2225 229.813437,1.50008621 231.197256,0.974224138 C232.581075,0.452672414 233.633256,0.162155172 234.358072,0.109568966 C235.080325,0.0612931034 235.936771,0.0354310345 236.925702,0.0354310345 C238.322342,0.0354310345 239.569403,0.18887931 240.660047,0.494913793 L240.660047,5.52767241 C239.616413,5.31991379 238.681331,5.21646552 237.839416,5.21646552 C236.595773,5.21646552 235.654708,5.26905172 235.006818,5.3725 C234.358072,5.47508621 233.575133,5.79060345 232.665693,6.3112931 C231.751125,6.83887931 231.075883,7.77163793 230.641677,9.11646552 C230.214308,10.459569 230.000624,12.2087069 230.000624,14.3587069 L230.000624,16.5475 L240.660047,16.5475 L240.660047,21.7311207 L230.000624,21.7311207 L230.000624,55.7983621 L224.36278,55.7983621 L224.36278,21.7311207 L217.662498,21.7311207 Z" id="Stroke-29" stroke="#C5C3C4" stroke-width="1.5"></path>
                <g id="Group-33" transform="translate(246.164211, 16.379310)">
                    <mask id="mask-20" fill="white">
                        <use xlink:href="#path-19"></use>
                    </mask>
                    <g id="Clip-32"></g>
                    <polygon id="Fill-31" fill="url(#linearGradient-21)" mask="url(#mask-20)" points="49.4354147 0.168965517 39.5409811 30.5698276 30.4611116 0.168965517 25.1096042 0.168965517 16.1605095 30.5439655 6.22590316 0.168965517 0.321381053 0.168965517 13.2663705 39.4189655 18.6725811 39.4189655 27.7011663 9.58362069 36.7203495 39.4189655 42.1248505 39.4189655 55.0818063 0.168965517"></polygon>
                </g>
                <polygon id="Stroke-34" stroke="#C5C3C4" stroke-width="1.5" points="246.485592 16.5477586 252.390114 16.5477586 262.32472 46.9227586 271.273815 16.5477586 276.624467 16.5477586 285.705192 46.9494828 295.599625 16.5477586 301.246017 16.5477586 288.288206 55.7977586 282.88456 55.7977586 273.864522 25.9632759 264.836792 55.7977586 259.430581 55.7977586"></polygon>
            </g>
            <g id="Group-Copy">
                <g id="Group-38" transform="translate(0.000000, 30.172414)">
                    <mask id="mask-23" fill="white">
                        <use xlink:href="#path-22"></use>
                    </mask>
                    <g id="Clip-37"></g>
                    <polygon id="Fill-36" fill="url(#linearGradient-24)" mask="url(#mask-23)" points="0.0820547368 7.07413793 21.0239621 43.9241379 28.93968 43.9241379 34.6672716 23.3715517 27.7114232 0.726724138"></polygon>
                </g>
                <polygon id="Stroke-39" stroke="#C5C3C4" stroke-width="1.5" points="0.0822256842 37.2467241 27.7115941 30.8993103 34.6674425 53.5441379 28.9398509 74.0967241 21.0241331 74.0967241"></polygon>
                <g id="Group-43" transform="translate(0.000000, 0.000000)">
                    <mask id="mask-26" fill="white">
                        <use xlink:href="#path-25"></use>
                    </mask>
                    <g id="Clip-42"></g>
                    <polygon id="Fill-41" fill="url(#linearGradient-27)" mask="url(#mask-26)" points="21.0239621 0.631034483 0.0820547368 37.2465517 27.7114232 30.8991379 43.6591032 21.1267241 49.4337053 0.631034483"></polygon>
                </g>
                <polygon id="Stroke-44" stroke="#C5C3C4" stroke-width="1.5" points="0.0822256842 37.2467241 27.7115941 30.8993103 43.6584194 21.1268966 49.4338762 0.631206897 21.0241331 0.631206897"></polygon>
                <g id="Group-48" transform="translate(48.720000, 0.000000)">
                    <mask id="mask-29" fill="white">
                        <use xlink:href="#path-28"></use>
                    </mask>
                    <g id="Clip-47"></g>
                    <polygon id="Fill-46" fill="url(#linearGradient-30)" mask="url(#mask-29)" points="6.43189474 0.518103448 0.69832 21.075 7.66784421 43.7103448 35.2835368 37.375 14.3390653 0.518103448"></polygon>
                </g>
                <polygon id="Stroke-49" stroke="#C5C3C4" stroke-width="1.5" points="84.0037933 37.3755172 56.3872459 43.7108621 49.4185764 21.0755172 55.1512964 0.517758621 63.0593217 0.517758621"></polygon>
                <g id="Group-53" transform="translate(34.189474, 37.068966)">
                    <mask id="mask-32" fill="white">
                        <use xlink:href="#path-31"></use>
                    </mask>
                    <g id="Clip-52"></g>
                    <polygon id="Fill-51" fill="url(#linearGradient-33)" mask="url(#mask-32)" points="22.1983705 6.64137931 6.20111579 16.5586207 0.467541053 36.9215517 28.8695916 36.9215517 49.8140632 0.306034483"></polygon>
                </g>
                <polygon id="Stroke-54" stroke="#C5C3C4" stroke-width="1.5" points="84.0037933 37.3755172 56.3872459 43.7108621 40.3899912 53.6272414 34.6572712 73.9910345 63.0593217 73.9910345"></polygon>
            </g>
        </g>
    </g>
</svg>